<svg width="27" height="28" fill="none" xmlns="http://www.w3.org/2000/svg"><g filter="url(#a)"><path d="m22.61 18-3.7-3.67c1-1.3 1.7-2.98 1.7-4.87a8 8 0 0 0-8-7.96c-4.4 0-8 3.68-8 8.06a8 8 0 0 0 12.9 6.26l3.7 3.68 1.4-1.5Zm-10-2.48a6 6 0 0 1-6-5.96 6 6 0 0 1 12 0 6 6 0 0 1-6 5.96Z" fill="#000"/></g><defs><filter id="a" x="-.89" y="0" width="28" height="28" filterUnits="userSpaceOnUse" color-interpolation-filters="sRGB"><feFlood flood-opacity="0" result="BackgroundImageFix"/><feColorMatrix in="SourceAlpha" values="0 0 0 0 0 0 0 0 0 0 0 0 0 0 0 0 0 0 127 0" result="hardAlpha"/><feOffset dy="4"/><feGaussianBlur stdDeviation="2"/><feComposite in2="hardAlpha" operator="out"/><feColorMatrix values="0 0 0 0 0 0 0 0 0 0 0 0 0 0 0 0 0 0 0.25 0"/><feBlend in2="BackgroundImageFix" result="effect1_dropShadow_33719_521"/><feBlend in="SourceGraphic" in2="effect1_dropShadow_33719_521" result="shape"/></filter></defs></svg>